<?xml version="1.0" encoding="UTF-8"?>
<svg width="254px" height="57px" viewBox="0 0 254 57" version="1.1" xmlns="http://www.w3.org/2000/svg" xmlns:xlink="http://www.w3.org/1999/xlink">
    <!-- Generator: Sketch 50.1 (55044) - http://www.bohemiancoding.com/sketch -->
    <title>Group 4</title>
    <desc>Created with Sketch.</desc>
    <defs></defs>
    <g id="Page-1" stroke="none" stroke-width="1" fill="none" fill-rule="evenodd">
        <g id="Group-4" fill="#000000">
            <path d="M47.807922,44.040795 C46.800753,44.040795 45.8112418,43.9630331 44.8448214,43.8143008 L44.8448214,12.1492609 L33.0386004,12.1492609 C36.595272,7.95962809 41.8946244,5.29365246 47.807922,5.29365246 C58.490501,5.29365246 67.1814933,13.9846447 67.1814933,24.6672237 C67.1814933,35.3498027 58.490501,44.040795 47.807922,44.040795 Z M39.830709,42.3150927 C33.117381,39.2681179 28.4343508,32.5065707 28.4343508,24.6672237 C28.4343508,22.0080395 28.9735903,19.4724593 29.9474813,17.1637129 L39.830709,17.1637129 L39.830709,42.3150927 Z M39.830709,51.8081528 L5.18592946,51.8081528 L5.18592946,17.1637129 L24.6063616,17.1637129 C23.8396092,19.5288282 23.4202384,22.0494672 23.4202384,24.6672237 C23.4202384,35.3212787 30.2901089,44.3956472 39.830709,47.7081669 L39.830709,51.8081528 Z M47.807922,0.279200513 C38.9342403,0.279200513 31.1546579,5.04474657 26.8876027,12.1492609 L0.171817084,12.1492609 L0.171817084,56.8226048 L44.8448214,56.8226048 L44.8448214,48.8688222 C45.8170145,48.986993 46.8044883,49.0552469 47.807922,49.0552469 C61.2556315,49.0552469 72.1959452,38.1149332 72.1959452,24.6672237 C72.1959452,11.2198538 61.2556315,0.279200513 47.807922,0.279200513 Z" id="Fill-1"></path>
            <polygon id="Fill-4" points="91.8252138 4.20084354 91.8252138 8.36093366 83.6975706 8.36093366 83.6975706 13.1930357 90.8642265 13.1930357 90.8642265 17.3534654 83.6975706 17.3534654 83.6975706 22.5696228 91.8252138 22.5696228 91.8252138 26.7300525 78.2233389 26.7300525 78.2233389 4.20084354"></polygon>
            <path d="M95.3122733,14.2492049 C95.3122733,12.6712162 95.9842852,11.3482458 97.3279695,10.2816518 C98.6719934,9.21539736 100.48972,8.681591 102.783864,8.681591 C105.078009,8.681591 106.927315,9.20487064 108.336198,10.2490529 C109.74474,11.2945935 110.48976,12.724529 110.575671,14.5385198 L104.976477,14.5385198 C104.911619,13.9198205 104.698029,13.4980728 104.336046,13.2739556 C103.974062,13.0498384 103.429729,12.9381194 102.703046,12.9381194 C101.275827,12.9381194 100.560011,13.3754875 100.560011,14.2492049 C100.560011,15.0397273 101.434747,15.582702 103.184898,15.8822041 C104.955764,16.1803478 106.565332,16.6387693 108.015642,17.2584873 C108.763039,17.556631 109.38819,18.0527449 109.888039,18.7454707 C110.388228,19.4395548 110.640869,20.2871252 110.640869,21.2895402 C110.640869,22.95378 109.924713,24.3144429 108.497494,25.3705102 C107.067898,26.4265775 105.263076,26.953932 103.08846,26.953932 C100.911467,26.953932 99.0988348,26.457818 97.6481854,25.4655902 C96.1978757,24.4733624 95.4087116,23.0074323 95.2810327,21.0657626 L100.880227,21.0657626 C101.028619,22.1544288 101.79673,22.6974036 103.184898,22.6974036 C103.82567,22.6974036 104.351666,22.5490108 104.76832,22.2495088 C105.184974,21.951365 105.393132,21.5669701 105.393132,21.0983615 C105.393132,20.6283946 105.044392,20.2558847 104.351666,19.9770965 C103.65894,19.7013644 102.820199,19.4653623 101.841214,19.2741835 C100.859173,19.0813069 99.8723786,18.8415695 98.8801507,18.5539524 C97.8879229,18.2663354 97.0440878,17.7651279 96.351362,17.0499904 C95.6586362,16.3351924 95.3122733,15.4017105 95.3122733,14.2492049" id="Fill-5"></path>
            <path d="M115.455925,24.4577081 C113.802212,22.7938079 112.976713,20.5747083 112.976713,17.8014281 C112.976713,15.0291666 113.802212,12.8155002 115.455925,11.1617871 C117.109638,9.50841358 119.247919,8.68155704 121.872807,8.68155704 C124.0498,8.68155704 125.893673,9.22045697 127.40952,10.2972381 C128.922311,11.3753775 129.925065,12.917032 130.417444,14.9211829 L124.497694,14.9211829 C123.984941,13.8545889 123.148916,13.3221408 121.984865,13.3221408 C120.823191,13.3221408 119.958642,13.7323431 119.393596,14.5537665 C118.828549,15.3755295 118.544667,16.4574042 118.544667,17.8014281 C118.544667,19.1451124 118.828549,20.2283454 119.393596,21.0501084 C119.958642,21.8718713 120.784141,22.2820737 121.872807,22.2820737 C122.555006,22.2820737 123.089152,22.1649215 123.474226,21.9302776 C123.857263,21.6959733 124.198532,21.2793191 124.497694,20.6816733 L130.417444,20.6816733 C129.925065,22.6022896 128.911784,24.1269655 127.37794,25.2584176 C125.841379,26.3888511 124.005655,26.953898 121.872807,26.953898 C119.247919,26.953898 117.109638,26.1219479 115.455925,24.4577081" id="Fill-7"></path>
            <path d="M145.618123,8.87409407 L151.089299,8.87409407 L151.089299,26.7297808 L145.618123,26.7297808 L145.618123,24.1062516 C144.485313,25.9837423 142.682867,26.9212991 140.209089,26.9212991 C138.159436,26.9212991 136.500629,26.2391001 135.23233,24.8743623 C133.96437,23.5086058 133.329031,21.6531873 133.329031,19.3053901 L133.329031,8.87409407 L138.768966,8.87409407 L138.768966,18.5695388 C138.768966,19.7220443 139.073902,20.6127403 139.680716,21.2416267 C140.289907,21.8718713 141.125932,22.1856354 142.193545,22.1856354 C143.258781,22.1856354 144.097182,21.8718713 144.703997,21.2416267 C145.313527,20.6127403 145.618123,19.7220443 145.618123,18.5695388 L145.618123,8.87409407 Z" id="Fill-9"></path>
            <path d="M165.808669,14.1372821 C165.167898,13.6150212 164.410314,13.3532116 163.537955,13.3532116 C162.66254,13.3532116 161.92567,13.6150212 161.329382,14.1372821 C160.730378,14.6609013 160.357868,15.3380068 160.209475,16.169957 L166.896996,16.169957 C166.811084,15.3380068 166.449441,14.6609013 165.808669,14.1372821 M163.472418,26.9540678 C160.870961,26.9540678 158.735396,26.1166845 157.073872,24.4422576 C155.409972,22.7678307 154.576664,20.5436375 154.576664,17.7700177 C154.576664,14.9967375 155.402162,12.7881647 157.055875,11.1449783 C158.709588,9.50315022 160.84753,8.68138726 163.472418,8.68138726 C166.097645,8.68138726 168.27226,9.49262351 170.001358,11.1137377 C171.728079,12.7348519 172.592628,14.9862108 172.592628,17.8654373 C172.592628,18.4851553 172.550861,19.0607289 172.465289,19.5945353 L160.175518,19.5945353 C160.282483,20.3836994 160.636656,21.0292247 161.232944,21.5294135 C161.829231,22.0319793 162.475436,22.2819039 163.168162,22.2819039 C163.860887,22.2819039 164.378734,22.2129709 164.720003,22.0737466 C165.061273,21.935541 165.313914,21.7963167 165.472833,21.6581111 C165.63413,21.5188868 165.83991,21.2896761 166.097645,20.9694602 L172.017055,20.9694602 C171.503962,22.7623975 170.480494,24.2079533 168.943933,25.3054483 C167.410088,26.4043016 165.584552,26.9540678 163.472418,26.9540678" id="Fill-11"></path>
            <polygon id="Fill-13" points="176.113645 26.7298488 181.58482 26.7298488 181.58482 3.04983208 176.113645 3.04983208"></polygon>
            <path d="M197.265144,21.0658305 C198.053969,20.2973803 198.449909,19.210412 198.449909,17.80153 C198.449909,16.3936666 198.053969,15.3117919 197.265144,14.5538684 C196.47598,13.7959449 195.569664,13.4173227 194.546196,13.4173227 C193.522727,13.4173227 192.614034,13.801378 191.82487,14.5694887 C191.035706,15.3379389 190.642482,16.4262655 190.642482,17.8337893 C190.642482,19.241313 191.035706,20.3248856 191.82487,21.0814508 C192.614034,21.8393744 193.522727,22.2183361 194.546196,22.2183361 C195.569664,22.2183361 196.47598,21.8339412 197.265144,21.0658305 M187.441681,24.3939705 C185.863693,22.6869447 185.074868,20.500444 185.074868,17.8337893 C185.074868,15.1671345 185.863693,12.9758798 187.441681,11.2583273 C189.020009,9.54077474 190.944701,8.68131934 193.218132,8.68131934 C195.489186,8.68131934 197.233564,9.52515445 198.449909,11.2101081 L198.449909,8.87419594 L203.921424,8.87419594 L203.921424,26.7298827 L198.449909,26.7298827 L198.449909,24.1372545 C197.126939,26.0150848 195.356074,26.9539999 193.137314,26.9539999 C190.918554,26.9539999 189.020009,26.1009963 187.441681,24.3939705" id="Fill-15"></path>
            <path d="M225.807383,21.0658305 C226.596547,20.2973803 226.989771,19.210412 226.989771,17.80153 C226.989771,16.3936666 226.596547,15.3117919 225.807383,14.5538684 C225.018559,13.7959449 224.112242,13.4173227 223.086057,13.4173227 C222.062589,13.4173227 221.156273,13.801378 220.367109,14.5694887 C219.577944,15.3379389 219.182344,16.4262655 219.182344,17.8337893 C219.182344,19.241313 219.577944,20.3248856 220.367109,21.0814508 C221.156273,21.8393744 222.062589,22.2183361 223.086057,22.2183361 C224.112242,22.2183361 225.018559,21.8339412 225.807383,21.0658305 M215.981543,24.3939705 C214.403554,22.6869447 213.61473,20.500444 213.61473,17.8337893 C213.61473,15.1671345 214.403554,12.9758798 215.981543,11.2583273 C217.559871,9.54077474 219.486939,8.68131934 221.757654,8.68131934 C224.031424,8.68131934 225.773426,9.52515445 226.989771,11.2101081 L226.989771,3.04986603 L232.464003,3.04986603 L232.464003,26.7298827 L226.989771,26.7298827 L226.989771,24.1372545 C225.666801,26.0150848 223.898652,26.9539999 221.679892,26.9539999 C219.461132,26.9539999 217.559871,26.1009963 215.981543,24.3939705" id="Fill-16"></path>
            <path d="M247.182796,14.1372821 C246.542025,13.6150212 245.784441,13.3532116 244.912082,13.3532116 C244.037006,13.3532116 243.299796,13.6150212 242.703848,14.1372821 C242.104844,14.6609013 241.731995,15.3380068 241.583942,16.169957 L248.271462,16.169957 C248.185551,15.3380068 247.823568,14.6609013 247.182796,14.1372821 M244.846884,26.9540678 C242.245427,26.9540678 240.109862,26.1166845 238.448339,24.4422576 C236.784099,22.7678307 235.950791,20.5436375 235.950791,17.7700177 C235.950791,14.9967375 236.776289,12.7881647 238.430341,11.1449783 C240.083715,9.50315022 242.221996,8.68138726 244.846884,8.68138726 C247.472111,8.68138726 249.646387,9.49262351 251.375825,11.1137377 C253.102546,12.7348519 253.967095,14.9862108 253.967095,17.8654373 C253.967095,18.4851553 253.924988,19.0607289 253.839416,19.5945353 L241.549985,19.5945353 C241.65695,20.3836994 242.011123,21.0292247 242.607071,21.5294135 C243.203698,22.0319793 243.849563,22.2819039 244.542288,22.2819039 C245.235014,22.2819039 245.7532,22.2129709 246.09447,22.0737466 C246.435399,21.935541 246.688041,21.7963167 246.84696,21.6581111 C247.008256,21.5188868 247.214037,21.2896761 247.472111,20.9694602 L253.391181,20.9694602 C252.878089,22.7623975 251.85496,24.2079533 250.31806,25.3054483 C248.784555,26.4043016 246.959019,26.9540678 244.846884,26.9540678" id="Fill-17"></path>
            <polygon id="Fill-18" points="78.2233389 54.2487209 83.6975706 54.2487209 83.6975706 36.3930342 78.2233389 36.3930342"></polygon>
            <path d="M93.4350203,36.393136 L93.4350203,39.0170048 C94.5654537,37.1391746 96.36722,36.200599 98.8440543,36.200599 C100.890991,36.200599 102.549798,36.8838168 103.820474,38.2485546 C105.088774,39.614311 105.724451,41.4700691 105.724451,43.8161684 L105.724451,54.2488228 L100.284177,54.2488228 L100.284177,44.5520198 C100.284177,43.4012121 99.9792417,42.5105161 99.3727671,41.8799319 C98.7632363,41.2513851 97.9248343,40.9362628 96.8595986,40.9362628 C95.7916463,40.9362628 94.9559609,41.2513851 94.3464301,41.8799319 C93.7396159,42.5105161 93.4350203,43.4012121 93.4350203,44.5520198 L93.4350203,54.2488228 L87.9635051,54.2488228 L87.9635051,36.393136 L93.4350203,36.393136 Z" id="Fill-19"></path>
            <path d="M111.450883,51.9766142 C109.79717,50.312714 108.971672,48.0936144 108.971672,45.3203342 C108.971672,42.5480727 109.79717,40.3347459 111.450883,38.6810328 C113.104596,37.0273197 115.242878,36.2004632 117.867765,36.2004632 C120.042041,36.2004632 121.888631,36.7393631 123.401761,37.8164838 C124.917269,38.8946232 125.920023,40.4362777 126.412062,42.440089 L120.490276,42.440089 C119.9799,41.373495 119.141158,40.8410469 117.979824,40.8410469 C116.815433,40.8410469 115.950884,41.2512493 115.385837,42.0730122 C114.82079,42.8944356 114.539625,43.9763103 114.539625,45.3203342 C114.539625,46.6640185 114.82079,47.7475911 115.385837,48.5690145 C115.950884,49.3907775 116.779099,49.8009798 117.867765,49.8009798 C118.549964,49.8009798 119.08411,49.6838277 119.466468,49.4495233 C119.849504,49.2148795 120.190773,48.7982253 120.490276,48.2005795 L126.412062,48.2005795 C125.920023,50.1211957 124.906742,51.6458716 123.370521,52.7773238 C121.83396,53.9077572 120.000613,54.4731437 117.867765,54.4731437 C115.242878,54.4731437 113.104596,53.6405145 111.450883,51.9766142" id="Fill-20"></path>
            <path d="M130.478295,54.2487209 L135.949471,54.2487209 L135.949471,36.3930342 L130.478295,36.3930342 L130.478295,54.2487209 Z M135.470335,34.3759796 C134.850617,34.9960371 134.093033,35.304368 133.196904,35.304368 C132.301115,35.304368 131.543531,34.9960371 130.92585,34.3759796 C130.306132,33.75762 129.99916,32.9956216 129.99916,32.0882866 C129.99916,31.1823099 130.306132,30.4192928 130.92585,29.8005936 C131.543531,29.1818944 132.301115,28.8718656 133.196904,28.8718656 C134.093033,28.8718656 134.850617,29.1818944 135.470335,29.8005936 C136.087676,30.4192928 136.397705,31.1823099 136.397705,32.0882866 C136.397705,32.9956216 136.087676,33.75762 135.470335,34.3759796 Z" id="Fill-21"></path>
            <path d="M151.835201,48.5848725 C152.624365,47.8164223 153.020306,46.7291144 153.020306,45.3205719 C153.020306,43.9127086 152.624365,42.8308339 151.835201,42.0729104 C151.046377,41.3149868 150.140061,40.9363646 149.116592,40.9363646 C148.092784,40.9363646 147.18443,41.3200804 146.394927,42.0885306 C145.606102,42.8566413 145.212878,43.9453075 145.212878,45.3528312 C145.212878,46.760355 145.606102,47.843588 146.394927,48.6004928 C147.18443,49.3580767 148.092784,49.7373781 149.116592,49.7373781 C150.140061,49.7373781 151.046377,49.3529832 151.835201,48.5848725 M142.012078,51.9130125 C140.434089,50.2056471 139.645265,48.019486 139.645265,45.3528312 C139.645265,42.6861764 140.434089,40.4949217 142.012078,38.7770296 C143.590406,37.0598167 145.515097,36.2003613 147.788528,36.2003613 C150.059243,36.2003613 151.803961,37.0441964 153.020306,38.7291501 L153.020306,30.5685684 L158.491821,30.5685684 L158.491821,54.2489247 L153.020306,54.2489247 L153.020306,51.6562965 C151.697335,53.5341267 149.92647,54.4730418 147.70771,54.4730418 C145.48895,54.4730418 143.590406,53.6200383 142.012078,51.9130125" id="Fill-22"></path>
            <path d="M173.650325,41.6561543 C173.009554,41.1342329 172.251631,40.8720838 171.376894,40.8720838 C170.501819,40.8720838 169.766986,41.1342329 169.168322,41.6561543 C168.572034,42.1797735 168.196808,42.8565394 168.048415,43.6884896 L174.735935,43.6884896 C174.65274,42.8565394 174.28838,42.1797735 173.650325,41.6561543 M171.314074,54.47294 C168.7099,54.47294 166.577052,53.6355567 164.913151,51.9611298 C163.248912,50.2867029 162.41832,48.0625097 162.41832,45.2888899 C162.41832,42.5156097 163.243818,40.3070368 164.897531,38.6638505 C166.551244,37.0220224 168.689186,36.200599 171.314074,36.200599 C173.936584,36.200599 176.113917,37.0114957 177.840298,38.6329495 C179.569735,40.2537241 180.434284,42.505083 180.434284,45.3843095 C180.434284,46.0040274 180.39014,46.5796011 180.306605,47.1130679 L168.017174,47.1130679 C168.124139,47.9025715 168.475596,48.5484365 169.072223,49.0482857 C169.670887,49.5508515 170.316752,49.8007761 171.009478,49.8007761 C171.702204,49.8007761 172.22039,49.7318431 172.561659,49.5926188 C172.902929,49.4544132 173.152853,49.3151889 173.31415,49.1769833 C173.473409,49.037759 173.681566,48.8085482 173.936584,48.4883323 L179.858711,48.4883323 C179.345279,50.2812697 178.32215,51.7264859 176.785589,52.82466 C175.249028,53.9235133 173.426208,54.47294 171.314074,54.47294" id="Fill-23"></path>
            <path d="M189.495104,36.393136 L189.495104,39.0170048 C190.625198,37.1391746 192.427643,36.200599 194.901421,36.200599 C196.951075,36.200599 198.609881,36.8838168 199.878181,38.2485546 C201.14648,39.614311 201.781819,41.4700691 201.781819,43.8161684 L201.781819,54.2488228 L196.341544,54.2488228 L196.341544,44.5520198 C196.341544,43.4012121 196.036948,42.5105161 195.430474,41.8799319 C194.82332,41.2513851 193.984918,40.9362628 192.916966,40.9362628 C191.85173,40.9362628 191.013328,41.2513851 190.406853,41.8799319 C189.797323,42.5105161 189.495104,43.4012121 189.495104,44.5520198 L189.495104,54.2488228 L184.021212,54.2488228 L184.021212,36.393136 L189.495104,36.393136 Z" id="Fill-24"></path>
            <path d="M207.847889,51.9766142 C206.194176,50.312714 205.368678,48.0936144 205.368678,45.3203342 C205.368678,42.5480727 206.194176,40.3347459 207.847889,38.6810328 C209.501602,37.0273197 211.639884,36.2004632 214.264772,36.2004632 C216.442104,36.2004632 218.285637,36.7393631 219.801145,37.8164838 C221.314275,38.8946232 222.31703,40.4362777 222.809408,42.440089 L216.889999,42.440089 C216.376566,41.373495 215.540881,40.8410469 214.37683,40.8410469 C213.215496,40.8410469 212.350607,41.2512493 211.78556,42.0730122 C211.220513,42.8944356 210.936631,43.9763103 210.936631,45.3203342 C210.936631,46.6640185 211.220513,47.7475911 211.78556,48.5690145 C212.350607,49.3907775 213.176105,49.8009798 214.264772,49.8009798 C214.946971,49.8009798 215.481117,49.6838277 215.866191,49.4495233 C216.249227,49.2148795 216.590157,48.7982253 216.889999,48.2005795 L222.809408,48.2005795 C222.31703,50.1211957 221.304088,51.6458716 219.769904,52.7773238 C218.233683,53.9077572 216.39762,54.4731437 214.264772,54.4731437 C211.639884,54.4731437 209.501602,53.6405145 207.847889,51.9766142" id="Fill-25"></path>
            <polygon id="Fill-26" points="226.056459 54.2487209 231.530691 54.2487209 231.530691 36.3930342 226.056459 36.3930342"></polygon>
            <path d="M247.310475,48.5848725 C248.099639,47.8164223 248.492523,46.7291144 248.492523,45.3205719 C248.492523,43.9127086 248.099639,42.8308339 247.310475,42.0729104 C246.52165,41.3149868 245.615334,40.9363646 244.58881,40.9363646 C243.565681,40.9363646 242.659365,41.3200804 241.8702,42.0885306 C241.081036,42.8566413 240.685436,43.9453075 240.685436,45.3528312 C240.685436,46.760355 241.081036,47.843588 241.8702,48.6004928 C242.659365,49.3580767 243.565681,49.7373781 244.58881,49.7373781 C245.615334,49.7373781 246.52165,49.3529832 247.310475,48.5848725 M237.484635,51.9130125 C235.906646,50.2056471 235.117482,48.019486 235.117482,45.3528312 C235.117482,42.6861764 235.906646,40.4949217 237.484635,38.7770296 C239.062963,37.0598167 240.990031,36.2003613 243.260746,36.2003613 C245.534516,36.2003613 247.276518,37.0441964 248.492523,38.7291501 L248.492523,36.3932379 L253.967095,36.3932379 L253.967095,54.2489247 L248.492523,54.2489247 L248.492523,51.6562965 C247.169892,53.5341267 245.401744,54.4730418 243.182984,54.4730418 C240.964224,54.4730418 239.062963,53.6200383 237.484635,51.9130125" id="Fill-27"></path>
        </g>
    </g>
</svg>