<?xml version="1.0" encoding="UTF-8"?>
<svg width="227px" height="51px" viewBox="0 0 227 51" version="1.1" xmlns="http://www.w3.org/2000/svg" xmlns:xlink="http://www.w3.org/1999/xlink">
    <!-- Generator: Sketch 50.1 (55044) - http://www.bohemiancoding.com/sketch -->
    <title>Group</title>
    <desc>Created with Sketch.</desc>
    <defs></defs>
    <g id="Page-1" stroke="none" stroke-width="1" fill="none" fill-rule="evenodd">
        <g id="Group" transform="translate(-0.117808, 0.137665)" fill="#FFFFFF">
            <path d="M42.6977382,39.0406123 C41.7992208,39.0406123 40.9164562,38.9712392 40.0542915,38.8385519 L40.0542915,10.5894792 L29.5217043,10.5894792 C32.6946886,6.85181637 37.4223565,4.47344136 42.6977382,4.47344136 C52.2278999,4.47344136 59.9813237,12.2268651 59.9813237,21.7570268 C59.9813237,31.2871885 52.2278999,39.0406123 42.6977382,39.0406123 Z M35.5810925,37.5010757 C29.5919861,34.782803 25.4141528,28.7506793 25.4141528,21.7570268 C25.4141528,19.3847106 25.8952201,17.1226642 26.7640495,15.0629811 L35.5810925,15.0629811 L35.5810925,37.5010757 Z M35.5810925,45.9700417 L4.67372904,45.9700417 L4.67372904,15.0629811 L21.9991201,15.0629811 C21.3150836,17.1729521 20.9409538,19.4216692 20.9409538,21.7570268 C20.9409538,31.2617416 27.0697151,39.3571837 35.5810925,42.3123548 L35.5810925,45.9700417 Z M42.6977382,-6.05878235e-05 C34.7813332,-6.05878235e-05 27.840998,4.25138699 24.0342651,10.5894792 L0.200530035,10.5894792 L0.200530035,50.4435436 L40.0542915,50.4435436 L40.0542915,43.3478007 C40.9216062,43.4532235 41.8025532,43.5141142 42.6977382,43.5141142 C54.6947332,43.5141142 64.4548257,33.7540218 64.4548257,21.7570268 C64.4548257,9.76033484 54.6947332,-6.05878235e-05 42.6977382,-6.05878235e-05 Z" id="Fill-1"></path>
            <polygon id="Fill-4" points="81.9665243 3.49852269 81.9665243 7.20982982 74.7156765 7.20982982 74.7156765 11.5206535 81.1092066 11.5206535 81.1092066 15.2322635 74.7156765 15.2322635 74.7156765 19.8857113 81.9665243 19.8857113 81.9665243 23.5973214 69.831995 23.5973214 69.831995 3.49852269"></polygon>
            <path d="M85.0774061,12.462885 C85.0774061,11.0551269 85.6769226,9.87487612 86.8756527,8.92334435 C88.0746857,7.97211552 89.6963188,7.49589523 91.7429755,7.49589523 C93.7896322,7.49589523 95.4394386,7.96272441 96.696333,8.89426219 C97.9529244,9.82701174 98.6175729,11.1026884 98.6942165,12.7209891 L93.6990534,12.7209891 C93.641192,12.1690341 93.4506433,11.7927837 93.1277102,11.5928439 C92.8047771,11.392904 92.3191657,11.2932371 91.670876,11.2932371 C90.3976229,11.2932371 89.7590272,11.6834226 89.7590272,12.462885 C89.7590272,13.1681273 90.5393984,13.6525269 92.1007466,13.9197192 C93.6805741,14.1856998 95.1165055,14.5946676 96.4103585,15.1475315 C97.0771275,15.413512 97.6348384,15.8561061 98.0807648,16.4741019 C98.5269941,17.0933094 98.7523808,17.8494454 98.7523808,18.7437217 C98.7523808,20.2284263 98.1134822,21.4423034 96.8402291,22.384444 C95.5648554,23.3265847 93.954734,23.7970491 92.0147119,23.7970491 C90.0725692,23.7970491 88.4554802,23.3544551 87.1613243,22.469267 C85.8674713,21.5840789 85.1634408,20.2762907 85.0495357,18.5440848 L90.0446988,18.5440848 C90.1770832,19.5153077 90.8623315,19.9997073 92.1007466,19.9997073 C92.6723927,19.9997073 93.1416454,19.8673229 93.5133517,19.6001306 C93.885058,19.3341501 94.0707597,18.991223 94.0707597,18.573167 C94.0707597,18.1538993 93.7596412,17.821575 93.1416454,17.572862 C92.5236496,17.3268755 91.77539,17.1163328 90.9020165,16.9457781 C90.0259166,16.7737086 89.1455755,16.5598336 88.2603874,16.3032442 C87.3751993,16.0466548 86.6223956,15.5995166 86.0043998,14.9615268 C85.386404,14.32384 85.0774061,13.4910604 85.0774061,12.462885" id="Fill-5"></path>
            <path d="M103.047997,21.5701134 C101.572683,20.0857117 100.836238,18.1060046 100.836238,15.6319008 C100.836238,13.1587059 101.572683,11.1838457 103.047997,9.70853225 C104.52331,8.23352168 106.430918,7.49586493 108.772637,7.49586493 C110.71478,7.49586493 112.359739,7.97662931 113.71206,8.93724925 C115.061653,9.89908095 115.956233,11.2744245 116.395494,13.0623712 L111.114357,13.0623712 C110.656919,12.1108394 109.911083,11.6358309 108.872607,11.6358309 C107.836253,11.6358309 107.06497,12.0017814 106.560879,12.7345911 C106.056788,13.4677038 105.803531,14.4328678 105.803531,15.6319008 C105.803531,16.8306309 106.056788,17.7970067 106.560879,18.5301193 C107.06497,19.263232 107.801415,19.6291825 108.772637,19.6291825 C109.381242,19.6291825 109.857765,19.5246685 110.201298,19.3153375 C110.543014,19.1063095 110.847467,18.7346033 111.114357,18.2014304 L116.395494,18.2014304 C115.956233,19.9148541 115.052262,21.2750507 113.683886,22.2844438 C112.313087,23.2929282 110.675398,23.7970188 108.772637,23.7970188 C106.430918,23.7970188 104.52331,23.054818 103.047997,21.5701134" id="Fill-7"></path>
            <path d="M129.956352,7.66763141 L134.837307,7.66763141 L134.837307,23.597079 L129.956352,23.597079 L129.956352,21.2565714 C128.945747,22.9315218 127.337746,23.7679367 125.130835,23.7679367 C123.302294,23.7679367 121.822437,23.159332 120.690959,21.9418197 C119.559784,20.7233986 118.992985,19.0681392 118.992985,16.9736182 L118.992985,7.66763141 L123.84607,7.66763141 L123.84607,16.3171491 C123.84607,17.3453245 124.118109,18.1399338 124.659461,18.700977 C125.202934,19.263232 125.94877,19.5431478 126.901211,19.5431478 C127.851531,19.5431478 128.599488,19.263232 129.14084,18.700977 C129.684616,18.1399338 129.956352,17.3453245 129.956352,16.3171491 L129.956352,7.66763141 Z" id="Fill-9"></path>
            <path d="M147.968779,12.3630363 C147.397132,11.8971159 146.721275,11.6635498 145.943025,11.6635498 C145.162048,11.6635498 144.50467,11.8971159 143.972709,12.3630363 C143.438324,12.8301684 143.106,13.434229 142.973616,14.1764298 L148.939698,14.1764298 C148.863055,13.434229 148.540425,12.8301684 147.968779,12.3630363 M145.884557,23.7971703 C143.563741,23.7971703 141.658557,23.0501224 140.176276,21.5563297 C138.691874,20.0625369 137.948461,18.0782857 137.948461,15.6038789 C137.948461,13.1297752 138.684906,11.1594592 140.16022,9.69353676 C141.635533,8.22882613 143.542838,7.49571346 145.884557,7.49571346 C148.22658,7.49571346 150.166602,8.21943502 151.709168,9.66566636 C153.249613,11.1118977 154.020896,13.1203841 154.020896,15.6890048 C154.020896,16.2418687 153.983635,16.7553505 153.907294,17.2315708 L142.943322,17.2315708 C143.038747,17.9356013 143.354713,18.5114886 143.886674,18.9577179 C144.418635,19.4060678 144.995128,19.629031 145.613124,19.629031 C146.23112,19.629031 146.693102,19.5675344 146.997556,19.4433293 C147.30201,19.3200331 147.527396,19.1958281 147.669172,19.0725318 C147.813068,18.9483268 147.996649,18.7438429 148.22658,18.4581713 L153.507414,18.4581713 C153.049673,20.0576898 152.136615,21.3473017 150.765815,22.3264009 C149.397439,23.3067119 147.768839,23.7971703 145.884557,23.7971703" id="Fill-11"></path>
            <polygon id="Fill-13" points="157.162072 23.5971396 162.043027 23.5971396 162.043027 2.47168026 157.162072 2.47168026"></polygon>
            <path d="M176.031786,18.5441454 C176.735514,17.8585942 177.088741,16.8888861 177.088741,15.6319917 C177.088741,14.3760061 176.735514,13.4108421 176.031786,12.734682 C175.327756,12.0585219 174.519211,11.7207447 173.606153,11.7207447 C172.693094,11.7207447 171.882429,12.0633689 171.178399,12.7486172 C170.474368,13.4341684 170.123564,14.4050883 170.123564,15.6607709 C170.123564,16.9164535 170.474368,17.8831323 171.178399,18.5580806 C171.882429,19.2342407 172.693094,19.5723208 173.606153,19.5723208 C174.519211,19.5723208 175.327756,19.2293937 176.031786,18.5441454 M167.26806,21.5132517 C165.860302,19.9903768 165.156575,18.0397518 165.156575,15.6607709 C165.156575,13.28179 165.860302,11.3269239 167.26806,9.79465784 C168.676121,8.26239178 170.39318,7.49565288 172.421358,7.49565288 C174.447415,7.49565288 176.003613,8.24845658 177.088741,9.75164048 L177.088741,7.66772229 L181.969999,7.66772229 L181.969999,23.5971699 L177.088741,23.5971699 L177.088741,21.2842297 C175.90849,22.9594831 174.328662,23.7971097 172.349258,23.7971097 C170.369854,23.7971097 168.676121,23.0361267 167.26806,21.5132517" id="Fill-15"></path>
            <path d="M201.49494,18.5441454 C202.19897,17.8585942 202.549774,16.8888861 202.549774,15.6319917 C202.549774,14.3760061 202.19897,13.4108421 201.49494,12.734682 C200.791212,12.0585219 199.982668,11.7207447 199.067186,11.7207447 C198.154127,11.7207447 197.345583,12.0633689 196.641552,12.7486172 C195.937522,13.4341684 195.584598,14.4050883 195.584598,15.6607709 C195.584598,16.9164535 195.937522,17.8831323 196.641552,18.5580806 C197.345583,19.2342407 198.154127,19.5723208 199.067186,19.5723208 C199.982668,19.5723208 200.791212,19.2293937 201.49494,18.5441454 M192.729093,21.5132517 C191.321335,19.9903768 190.617608,18.0397518 190.617608,15.6607709 C190.617608,13.28179 191.321335,11.3269239 192.729093,9.79465784 C194.137155,8.26239178 195.856334,7.49565288 197.882088,7.49565288 C199.910568,7.49565288 201.464646,8.24845658 202.549774,9.75164048 L202.549774,2.47171055 L207.433455,2.47171055 L207.433455,23.5971699 L202.549774,23.5971699 L202.549774,21.2842297 C201.369523,22.9594831 199.792119,23.7971097 197.812715,23.7971097 C195.833311,23.7971097 194.137155,23.0361267 192.729093,21.5132517" id="Fill-16"></path>
            <path d="M220.564412,12.3630363 C219.992766,11.8971159 219.316909,11.6635498 218.538658,11.6635498 C217.757984,11.6635498 217.100303,11.8971159 216.568645,12.3630363 C216.03426,12.8301684 215.701633,13.434229 215.569552,14.1764298 L221.535635,14.1764298 C221.458991,13.434229 221.136058,12.8301684 220.564412,12.3630363 M218.480494,23.7971703 C216.159677,23.7971703 214.254493,23.0501224 212.772212,21.5563297 C211.287507,20.0625369 210.544095,18.0782857 210.544095,15.6038789 C210.544095,13.1297752 211.28054,11.1594592 212.756156,9.69353676 C214.231167,8.22882613 216.138774,7.49571346 218.480494,7.49571346 C220.822516,7.49571346 222.762235,8.21943502 224.305104,9.66566636 C225.84555,11.1118977 226.616833,13.1203841 226.616833,15.6890048 C226.616833,16.2418687 226.579268,16.7553505 226.502927,17.2315708 L215.539258,17.2315708 C215.634684,17.9356013 215.950649,18.5114886 216.482307,18.9577179 C217.014571,19.4060678 217.590762,19.629031 218.208757,19.629031 C218.826753,19.629031 219.289038,19.5675344 219.593492,19.4433293 C219.897643,19.3200331 220.12303,19.1958281 220.264805,19.0725318 C220.408701,18.9483268 220.592282,18.7438429 220.822516,18.4581713 L226.103048,18.4581713 C225.645307,20.0576898 224.732551,21.3473017 223.361449,22.3264009 C221.993376,23.3067119 220.364775,23.7971703 218.480494,23.7971703" id="Fill-17"></path>
            <polygon id="Fill-18" points="69.831995 48.1473257 74.7156765 48.1473257 74.7156765 32.2178781 69.831995 32.2178781"></polygon>
            <path d="M83.4026678,32.217969 L83.4026678,34.5587795 C84.4111521,32.8835262 86.018547,32.0462025 88.228185,32.0462025 C90.054302,32.0462025 91.5341595,32.655716 92.6677577,33.8732283 C93.7992353,35.0916494 94.3663374,36.7472117 94.3663374,38.8402181 L94.3663374,48.1474166 L89.5129498,48.1474166 L89.5129498,39.4966871 C89.5129498,38.4700265 89.2409104,37.6754172 88.6998612,37.1128592 C88.1560854,36.5521189 87.4081288,36.2709914 86.4578088,36.2709914 C85.5050652,36.2709914 84.7595321,36.5521189 84.2157563,37.1128592 C83.6744041,37.6754172 83.4026678,38.4700265 83.4026678,39.4966871 L83.4026678,48.1474166 L78.5214098,48.1474166 L78.5214098,32.217969 L83.4026678,32.217969 Z" id="Fill-19"></path>
            <path d="M99.4750117,46.1203298 C97.9996982,44.6359281 97.2632533,42.656221 97.2632533,40.1821172 C97.2632533,37.7089222 97.9996982,35.7343651 99.4750117,34.2590516 C100.950325,32.7837381 102.857933,32.0460813 105.199652,32.0460813 C107.139371,32.0460813 108.786754,32.5268457 110.136651,33.4877686 C111.488668,34.4496003 112.383248,35.8249439 112.822206,37.6125876 L107.539251,37.6125876 C107.083934,36.6610558 106.335674,36.1860473 105.299622,36.1860473 C104.260844,36.1860473 103.489561,36.5519977 102.98547,37.2851104 C102.48138,38.0179201 102.230546,38.9830842 102.230546,40.1821172 C102.230546,41.3808473 102.48138,42.347526 102.98547,43.0803357 C103.489561,43.8134484 104.228429,44.1793988 105.199652,44.1793988 C105.808257,44.1793988 106.28478,44.0748848 106.62589,43.8658568 C106.967605,43.6565259 107.272059,43.2848196 107.539251,42.7516468 L112.822206,42.7516468 C112.383248,44.4650704 111.479277,45.8252671 110.108781,46.8346602 C108.737981,47.8431445 107.102413,48.3475382 105.199652,48.3475382 C102.857933,48.3475382 100.950325,47.6047314 99.4750117,46.1203298" id="Fill-20"></path>
            <path d="M116.449781,48.1473257 L121.330736,48.1473257 L121.330736,32.2178781 L116.449781,32.2178781 L116.449781,48.1473257 Z M120.903289,30.4184197 C120.350425,30.9715865 119.674568,31.2466553 118.875112,31.2466553 C118.075958,31.2466553 117.400101,30.9715865 116.849055,30.4184197 C116.296191,29.8667676 116.022334,29.1869722 116.022334,28.3775189 C116.022334,27.5692773 116.296191,26.8885731 116.849055,26.3366181 C117.400101,25.784663 118.075958,25.5080796 118.875112,25.5080796 C119.674568,25.5080796 120.350425,25.784663 120.903289,26.3366181 C121.454032,26.8885731 121.730616,27.5692773 121.730616,28.3775189 C121.730616,29.1869722 121.454032,29.8667676 120.903289,30.4184197 Z" id="Fill-21"></path>
            <path d="M135.502743,43.094483 C136.206774,42.4089318 136.560001,41.4389207 136.560001,40.1823292 C136.560001,38.9263437 136.206774,37.9611796 135.502743,37.2850195 C134.799015,36.6088594 133.990471,36.2710823 133.077412,36.2710823 C132.164051,36.2710823 131.353689,36.6134035 130.649355,37.2989547 C129.945628,37.984203 129.594824,38.9554258 129.594824,40.2111085 C129.594824,41.4667911 129.945628,42.4331669 130.649355,43.1084182 C131.353689,43.7842753 132.164051,44.1226583 133.077412,44.1226583 C133.990471,44.1226583 134.799015,43.7797313 135.502743,43.094483 M126.73932,46.0635893 C125.331562,44.5404114 124.627835,42.5900893 124.627835,40.2111085 C124.627835,37.8321276 125.331562,35.8772614 126.73932,34.3446924 C128.147381,32.8127293 129.86444,32.0459904 131.892618,32.0459904 C133.918371,32.0459904 135.474873,32.7987941 136.560001,34.301978 L136.560001,27.0217452 L141.441259,27.0217452 L141.441259,48.1475075 L136.560001,48.1475075 L136.560001,45.8345673 C135.37975,47.5098206 133.799922,48.3474473 131.820518,48.3474473 C129.841114,48.3474473 128.147381,47.5864642 126.73932,46.0635893" id="Fill-22"></path>
            <path d="M154.964491,36.9132223 C154.392845,36.4476049 153.716685,36.2137359 152.936314,36.2137359 C152.15564,36.2137359 151.500079,36.4476049 150.965998,36.9132223 C150.434037,37.3803545 150.099289,37.9841121 149.966904,38.726313 L155.932987,38.726313 C155.858767,37.9841121 155.533714,37.3803545 154.964491,36.9132223 M152.88027,48.3473564 C150.55703,48.3473564 148.654269,47.6003085 147.169868,46.1065157 C145.685163,44.6127229 144.944174,42.6284717 144.944174,40.154065 C144.944174,37.6799612 145.680619,35.7096452 147.155932,34.2437228 C148.631246,32.7790122 150.538551,32.0462025 152.88027,32.0462025 C155.219869,32.0462025 157.162314,32.7696211 158.702457,34.2161554 C160.245326,35.6620838 161.016609,37.6705701 161.016609,40.2391909 C161.016609,40.7920548 160.977227,41.3055366 160.902704,41.781454 L149.939034,41.781454 C150.03446,42.4857874 150.348002,43.0619776 150.880266,43.507904 C151.414348,43.9562539 151.990538,44.1792171 152.608534,44.1792171 C153.226529,44.1792171 153.688814,44.1177204 153.993268,43.9935154 C154.297722,43.8702192 154.520685,43.7460141 154.664581,43.6227179 C154.80666,43.4985129 154.992361,43.294029 155.219869,43.0083574 L160.503127,43.0083574 C160.045083,44.6078759 159.132327,45.8971848 157.761528,46.8768899 C156.390728,47.8572009 154.764551,48.3473564 152.88027,48.3473564" id="Fill-23"></path>
            <path d="M169.099964,32.217969 L169.099964,34.5587795 C170.108145,32.8835262 171.716146,32.0462025 173.923057,32.0462025 C175.751598,32.0462025 177.231455,32.655716 178.362933,33.8732283 C179.494411,35.0916494 180.06121,36.7472117 180.06121,38.8402181 L180.06121,48.1474166 L175.207822,48.1474166 L175.207822,39.4966871 C175.207822,38.4700265 174.936086,37.6754172 174.395036,37.1128592 C173.853381,36.5521189 173.105425,36.2709914 172.152681,36.2709914 C171.202361,36.2709914 170.454404,36.5521189 169.913355,37.1128592 C169.369579,37.6754172 169.099964,38.4700265 169.099964,39.4966871 L169.099964,48.1474166 L164.216585,48.1474166 L164.216585,32.217969 L169.099964,32.217969 Z" id="Fill-24"></path>
            <path d="M185.472884,46.1203298 C183.99757,44.6359281 183.261125,42.656221 183.261125,40.1821172 C183.261125,37.7089222 183.99757,35.7343651 185.472884,34.2590516 C186.948197,32.7837381 188.855805,32.0460813 191.197524,32.0460813 C193.13997,32.0460813 194.784626,32.5268457 196.136644,33.4877686 C197.48654,34.4496003 198.381119,35.8249439 198.820381,37.6125876 L193.539547,37.6125876 C193.081503,36.6610558 192.335969,36.1860473 191.297494,36.1860473 C190.261442,36.1860473 189.489856,36.5519977 188.985766,37.2851104 C188.481675,38.0179201 188.228418,38.9830842 188.228418,40.1821172 C188.228418,41.3808473 188.481675,42.347526 188.985766,43.0803357 C189.489856,43.8134484 190.226301,44.1793988 191.197524,44.1793988 C191.806129,44.1793988 192.282652,44.0748848 192.626185,43.8658568 C192.9679,43.6565259 193.272051,43.2848196 193.539547,42.7516468 L198.820381,42.7516468 C198.381119,44.4650704 197.477452,45.8252671 196.108773,46.8346602 C194.738277,47.8431445 193.100285,48.3475382 191.197524,48.3475382 C188.855805,48.3475382 186.948197,47.6047314 185.472884,46.1203298" id="Fill-25"></path>
            <polygon id="Fill-26" points="201.717146 48.1473257 206.600827 48.1473257 206.600827 32.2178781 201.717146 32.2178781"></polygon>
            <path d="M220.678317,43.094483 C221.382348,42.4089318 221.732848,41.4389207 221.732848,40.1823292 C221.732848,38.9263437 221.382348,37.9611796 220.678317,37.2850195 C219.974589,36.6088594 219.166045,36.2710823 218.25026,36.2710823 C217.337504,36.2710823 216.52896,36.6134035 215.824929,37.2989547 C215.120899,37.984203 214.767975,38.9554258 214.767975,40.2111085 C214.767975,41.4667911 215.120899,42.4331669 215.824929,43.1084182 C216.52896,43.7842753 217.337504,44.1226583 218.25026,44.1226583 C219.166045,44.1226583 219.974589,43.7797313 220.678317,43.094483 M211.912471,46.0635893 C210.504713,44.5404114 209.800682,42.5900893 209.800682,40.2111085 C209.800682,37.8321276 210.504713,35.8772614 211.912471,34.3446924 C213.320532,32.8127293 215.039711,32.0459904 217.065465,32.0459904 C219.093945,32.0459904 220.648023,32.7987941 221.732848,34.301978 L221.732848,32.2180598 L226.616833,32.2180598 L226.616833,48.1475075 L221.732848,48.1475075 L221.732848,45.8345673 C220.5529,47.5098206 218.975496,48.3474473 216.996092,48.3474473 C215.016688,48.3474473 213.320532,47.5864642 211.912471,46.0635893" id="Fill-27"></path>
        </g>
    </g>
</svg>