<?xml version="1.0" encoding="UTF-8"?>
<svg width="254px" height="57px" viewBox="0 0 254 57" version="1.1" xmlns="http://www.w3.org/2000/svg" xmlns:xlink="http://www.w3.org/1999/xlink">
    <!-- Generator: Sketch 50.1 (55044) - http://www.bohemiancoding.com/sketch -->
    <title>Group</title>
    <desc>Created with Sketch.</desc>
    <defs></defs>
    <g id="Page-1" stroke="none" stroke-width="1" fill="none" fill-rule="evenodd">
        <g id="Group" transform="translate(-0.117808, 0.137665)" fill="#FFFFFF">
            <path d="M47.7763239,43.6842093 C46.7709343,43.6842093 45.7831713,43.6065849 44.8184583,43.4581153 L44.8184583,11.8490208 L33.0330964,11.8490208 C36.5834841,7.66679012 41.8734737,5.00552469 47.7763239,5.00552469 C58.440029,5.00552469 67.1156662,13.6811619 67.1156662,24.344867 C67.1156662,35.0085722 58.440029,43.6842093 47.7763239,43.6842093 Z M39.8132048,41.9615561 C33.1117378,38.9199646 28.4369815,32.1703636 28.4369815,24.344867 C28.4369815,21.690381 28.9752683,19.1592807 29.9474386,16.8546133 L39.8132048,16.8546133 L39.8132048,41.9615561 Z M39.8132048,51.437844 L5.22963514,51.437844 L5.22963514,16.8546133 L24.6157555,16.8546133 C23.8503578,19.2155499 23.431728,21.7317355 23.431728,24.344867 C23.431728,34.9800986 30.2894609,44.0384346 39.8132048,47.3451018 L39.8132048,51.437844 Z M47.7763239,-6.77943047e-05 C38.91832,-6.77943047e-05 31.1524824,4.75705857 26.8929662,11.8490208 L0.224381625,11.8490208 L0.224381625,56.4434365 L44.8184583,56.4434365 L44.8184583,48.5037065 C45.7889338,48.6216686 46.774663,48.6898018 47.7763239,48.6898018 C61.2002741,48.6898018 72.1212587,37.7688173 72.1212587,24.344867 C72.1212587,10.9212557 61.2002741,-6.77943047e-05 47.7763239,-6.77943047e-05 Z" id="Fill-1"></path>
            <polygon id="Fill-4" points="91.7158466 3.91464654 91.7158466 8.06738667 83.6025631 8.06738667 83.6025631 12.8909514 90.7565571 12.8909514 90.7565571 17.0440306 83.6025631 17.0440306 83.6025631 22.2509721 91.7158466 22.2509721 91.7158466 26.4040512 78.1380032 26.4040512 78.1380032 3.91464654"></polygon>
            <path d="M95.1967451,13.9452546 C95.1967451,12.3700539 95.8675698,11.0494209 97.2088801,9.9847113 C98.5505294,8.92034071 100.365044,8.38747748 102.655136,8.38747748 C104.945227,8.38747748 106.791266,8.9098326 108.197659,9.95217003 C109.603713,10.9958634 110.347416,12.4232724 110.433176,14.2340583 L104.843875,14.2340583 C104.779131,13.6164522 104.565918,13.1954496 104.204574,12.9717284 C103.843231,12.7480072 103.299859,12.6364855 102.57446,12.6364855 C101.149763,12.6364855 100.435211,13.0730808 100.435211,13.9452546 C100.435211,14.7343803 101.308402,15.2763958 103.055461,15.5753686 C104.823197,15.8729856 106.429922,16.3305972 107.87767,16.9492202 C108.623746,17.2468372 109.247793,17.7420746 109.746759,18.4335765 C110.246064,19.1264343 110.498259,19.9725072 110.498259,20.9731512 C110.498259,22.6344506 109.783368,23.9927095 108.35867,25.0469109 C106.9316,26.1011124 105.129967,26.6275352 102.959193,26.6275352 C100.786047,26.6275352 98.9766166,26.1322978 97.5285302,25.141823 C96.0807829,24.1513482 95.293013,22.6880081 95.1655597,20.7497689 L100.754861,20.7497689 C100.902992,21.8365116 101.669745,22.3785271 103.055461,22.3785271 C103.6951,22.3785271 104.220167,22.2303966 104.636085,21.9314237 C105.052003,21.6338067 105.259793,21.2500909 105.259793,20.7823102 C105.259793,20.3131736 104.911669,19.9413219 104.220167,19.6630262 C103.528665,19.3877814 102.691406,19.1521961 101.714151,18.9613552 C100.733845,18.7688194 99.7487937,18.5295055 98.7583189,18.2423966 C97.7678441,17.9552877 96.9254999,17.4549657 96.233998,16.7410917 C95.5424961,16.0275566 95.1967451,15.0957239 95.1967451,13.9452546" id="Fill-5"></path>
            <path d="M115.304807,24.1357216 C113.654016,22.4747611 112.829976,20.2595822 112.829976,17.4912018 C112.829976,14.7238383 113.654016,12.5140829 115.304807,10.8632916 C116.955598,9.21283924 119.090102,8.38744358 121.710352,8.38744358 C123.883498,8.38744358 125.724114,8.92539139 127.237283,10.0002701 C128.747401,11.0765047 129.748384,12.6154354 130.239892,14.6160453 L124.330602,14.6160453 C123.818755,13.5513358 122.984207,13.0198284 121.822213,13.0198284 C120.662591,13.0198284 119.799569,13.429306 119.235521,14.2492781 C118.671472,15.0695892 118.388092,16.1495525 118.388092,17.4912018 C118.388092,18.8325121 118.671472,19.9138313 119.235521,20.7341424 C119.799569,21.5544534 120.623609,21.963931 121.710352,21.963931 C122.391346,21.963931 122.924548,21.8469859 123.308942,21.6127565 C123.691302,21.3788662 124.031968,20.9629481 124.330602,20.3663582 L130.239892,20.3663582 C129.748384,22.2835812 128.736893,23.8055633 127.205758,24.9350164 C125.671912,26.0634526 123.839432,26.6275013 121.710352,26.6275013 C119.090102,26.6275013 116.955598,25.797021 115.304807,24.1357216" id="Fill-7"></path>
            <path d="M145.413715,8.57964044 L150.875225,8.57964044 L150.875225,26.4037801 L145.413715,26.4037801 L145.413715,23.7848861 C144.282906,25.6590596 142.483646,26.59496 140.014238,26.59496 C137.968206,26.59496 136.31233,25.9139662 135.046271,24.5516396 C133.780552,23.1882962 133.146336,21.3361558 133.146336,18.9925067 L133.146336,8.57964044 L138.57666,8.57964044 L138.57666,18.2579554 C138.57666,19.4084247 138.881056,20.297547 139.486798,20.9253223 C140.094913,21.5544534 140.929461,21.8676631 141.995188,21.8676631 C143.058541,21.8676631 143.895462,21.5544534 144.501204,20.9253223 C145.109658,20.297547 145.413715,19.4084247 145.413715,18.2579554 L145.413715,8.57964044 Z" id="Fill-9"></path>
            <path d="M165.568589,13.8335296 C164.92895,13.3121914 164.172705,13.0508443 163.301887,13.0508443 C162.428018,13.0508443 161.69245,13.3121914 161.097216,13.8335296 C160.49927,14.3562237 160.127418,15.0321329 159.979288,15.8626131 L166.654993,15.8626131 C166.569233,15.0321329 166.208229,14.3562237 165.568589,13.8335296 M163.236465,26.6276707 C160.639604,26.6276707 158.507812,25.791767 156.849225,24.1202984 C155.188264,22.4488298 154.356428,20.2285663 154.356428,17.4598469 C154.356428,14.6914665 155.180468,12.4867957 156.831259,10.8465125 C158.482051,9.20758518 160.616215,8.3872741 163.236465,8.3872741 C165.857054,8.3872741 168.027828,9.19707707 169.753871,10.8153271 C171.477541,12.4335772 172.340562,14.6809584 172.340562,17.5550979 C172.340562,18.173721 172.298869,18.7482777 172.213448,19.2811409 L159.945391,19.2811409 C160.052167,20.0689107 160.405714,20.7132956 161.000948,21.2126007 C161.596182,21.7142785 162.241245,21.9637616 162.932747,21.9637616 C163.624249,21.9637616 164.14118,21.8949503 164.481847,21.755972 C164.822513,21.6180106 165.074708,21.4790323 165.233346,21.3410709 C165.394358,21.2020925 165.599775,20.9732868 165.857054,20.6536366 L171.766006,20.6536366 C171.25382,22.4434063 170.23216,23.886408 168.698313,24.981964 C167.167179,26.0788758 165.344868,26.6276707 163.236465,26.6276707" id="Fill-11"></path>
            <polygon id="Fill-13" points="175.855358 26.4038478 181.316867 26.4038478 181.316867 2.76566866 175.855358 2.76566866"></polygon>
            <path d="M196.969488,20.7498367 C197.756918,19.9827442 198.152159,18.8976963 198.152159,17.4913035 C198.152159,16.0859275 197.756918,15.0059643 196.969488,14.2493798 C196.181718,13.4927954 195.277003,13.1148421 194.255343,13.1148421 C193.233682,13.1148421 192.326595,13.4982189 191.538825,14.2649725 C190.751055,15.0320651 190.358526,16.1184688 190.358526,17.5235058 C190.358526,18.9285427 190.751055,20.0102009 191.538825,20.7654294 C192.326595,21.5220139 193.233682,21.9003061 194.255343,21.9003061 C195.277003,21.9003061 196.181718,21.5165903 196.969488,20.7498367 M187.16338,24.0720966 C185.58818,22.3680868 184.800749,20.1854491 184.800749,17.5235058 C184.800749,14.8615624 185.58818,12.6741792 187.16338,10.9596612 C188.73892,9.24514323 190.660211,8.3872063 192.929625,8.3872063 C195.196666,8.3872063 196.937963,9.22955054 198.152159,10.9115272 L198.152159,8.57974213 L203.614007,8.57974213 L203.614007,26.4038817 L198.152159,26.4038817 L198.152159,23.8158342 C196.831526,25.6903467 195.06379,26.627603 192.84895,26.627603 C190.63411,26.627603 188.73892,25.7761065 187.16338,24.0720966" id="Fill-15"></path>
            <path d="M225.461298,20.7498367 C226.249068,19.9827442 226.641597,18.8976963 226.641597,17.4913035 C226.641597,16.0859275 226.249068,15.0059643 225.461298,14.2493798 C224.673867,13.4927954 223.769152,13.1148421 222.74478,13.1148421 C221.72312,13.1148421 220.818405,13.4982189 220.030635,14.2649725 C219.242866,15.0320651 218.847964,16.1184688 218.847964,17.5235058 C218.847964,18.9285427 219.242866,20.0102009 220.030635,20.7654294 C220.818405,21.5220139 221.72312,21.9003061 222.74478,21.9003061 C223.769152,21.9003061 224.673867,21.5165903 225.461298,20.7498367 M215.652818,24.0720966 C214.077618,22.3680868 213.290187,20.1854491 213.290187,17.5235058 C213.290187,14.8615624 214.077618,12.6741792 215.652818,10.9596612 C217.228358,9.24514323 219.152021,8.3872063 221.418724,8.3872063 C223.688477,8.3872063 225.427401,9.22955054 226.641597,10.9115272 L226.641597,2.76570256 L232.106157,2.76570256 L232.106157,26.4038817 L226.641597,26.4038817 L226.641597,23.8158342 C225.320964,25.6903467 223.555939,26.627603 221.341099,26.627603 C219.126259,26.627603 217.228358,25.7761065 215.652818,24.0720966" id="Fill-16"></path>
            <path d="M246.798946,13.8335296 C246.159306,13.3121914 245.403061,13.0508443 244.532243,13.0508443 C243.658713,13.0508443 242.922806,13.3121914 242.327911,13.8335296 C241.729965,14.3562237 241.357775,15.0321329 241.209983,15.8626131 L247.885688,15.8626131 C247.799928,15.0321329 247.438585,14.3562237 246.798946,13.8335296 M244.46716,26.6276707 C241.8703,26.6276707 239.738508,25.791767 238.07992,24.1202984 C236.418621,22.4488298 235.586784,20.2285663 235.586784,17.4598469 C235.586784,14.6914665 236.410824,12.4867957 238.061955,10.8465125 C239.712407,9.20758518 241.846911,8.3872741 244.46716,8.3872741 C247.087749,8.3872741 249.258184,9.19707707 250.984566,10.8153271 C252.708236,12.4335772 253.571258,14.6809584 253.571258,17.5550979 C253.571258,18.173721 253.529225,18.7482777 253.443804,19.2811409 L241.176086,19.2811409 C241.282862,20.0689107 241.636409,20.7132956 242.231304,21.2126007 C242.826877,21.7142785 243.471601,21.9637616 244.163103,21.9637616 C244.854605,21.9637616 245.371875,21.8949503 245.712542,21.755972 C246.052869,21.6180106 246.305064,21.4790323 246.463703,21.3410709 C246.624714,21.2020925 246.830131,20.9732868 247.087749,20.6536366 L252.996362,20.6536366 C252.484176,22.4434063 251.462855,23.886408 249.92867,24.981964 C248.397874,26.0788758 246.575563,26.6276707 244.46716,26.6276707" id="Fill-17"></path>
            <polygon id="Fill-18" points="78.1380032 53.8741001 83.6025631 53.8741001 83.6025631 36.0499605 78.1380032 36.0499605"></polygon>
            <path d="M93.3228089,36.0500622 L93.3228089,38.6692951 C94.4512451,36.7947826 96.249828,35.8578653 98.7222862,35.8578653 C100.765607,35.8578653 102.421482,36.539876 103.689914,37.9022026 C104.955973,39.2655461 105.590527,41.1180254 105.590527,43.4599797 L105.590527,53.8742018 L100.159864,53.8742018 L100.159864,44.194531 C100.159864,43.0457565 99.8554681,42.1566342 99.2500649,41.5271641 C98.641611,40.8997278 97.8046903,40.5851622 96.7413367,40.5851622 C95.6752712,40.5851622 94.8410623,40.8997278 94.2326084,41.5271641 C93.6268663,42.1566342 93.3228089,43.0457565 93.3228089,44.194531 L93.3228089,53.8742018 L87.8609607,53.8742018 L87.8609607,36.0500622 L93.3228089,36.0500622 Z" id="Fill-19"></path>
            <path d="M111.306841,51.6060077 C109.65605,49.9450473 108.83201,47.7298684 108.83201,44.9614879 C108.83201,42.1941244 109.65605,39.984708 111.306841,38.3339167 C112.957633,36.6831254 115.092136,35.8577297 117.712386,35.8577297 C119.882821,35.8577297 121.726148,36.3956775 123.236605,37.4708952 C124.749435,38.5471298 125.750418,40.0860605 126.241588,42.0863315 L120.330263,42.0863315 C119.820789,41.0216219 118.983529,40.4901146 117.824247,40.4901146 C116.661913,40.4901146 115.798892,40.8995922 115.234843,41.7199033 C114.670795,42.5398754 114.390126,43.6198387 114.390126,44.9614879 C114.390126,46.3027983 114.670795,47.3844564 115.234843,48.2044285 C115.798892,49.0247396 116.625644,49.4342172 117.712386,49.4342172 C118.39338,49.4342172 118.926582,49.317272 119.308264,49.0833817 C119.690624,48.8491523 120.03129,48.4332343 120.330263,47.8366444 L126.241588,47.8366444 C125.750418,49.7538673 124.738927,51.2758495 123.20542,52.4053026 C121.671574,53.5337388 119.841466,54.0981264 117.712386,54.0981264 C115.092136,54.0981264 112.957633,53.2669682 111.306841,51.6060077" id="Fill-20"></path>
            <path d="M130.300636,53.8741001 L135.762145,53.8741001 L135.762145,36.0499605 L130.300636,36.0499605 L130.300636,53.8741001 Z M135.283856,34.0364696 C134.665233,34.6554316 133.908988,34.9632178 133.014442,34.9632178 C132.120235,34.9632178 131.36399,34.6554316 130.747401,34.0364696 C130.128778,33.4192025 129.822347,32.6585504 129.822347,31.7528185 C129.822347,30.8484425 130.128778,30.0867735 130.747401,29.4691673 C131.36399,28.8515612 132.120235,28.5420802 133.014442,28.5420802 C133.908988,28.5420802 134.665233,28.8515612 135.283856,29.4691673 C135.900107,30.0867735 136.209588,30.8484425 136.209588,31.7528185 C136.209588,32.6585504 135.900107,33.4192025 135.283856,34.0364696 Z" id="Fill-21"></path>
            <path d="M151.619809,48.2202585 C152.407579,47.4531659 152.80282,46.3677791 152.80282,44.9617252 C152.80282,43.5563493 152.407579,42.476386 151.619809,41.7198016 C150.832379,40.9632171 149.927664,40.5852639 148.906003,40.5852639 C147.884004,40.5852639 146.977255,40.9683017 146.189147,41.7353943 C145.401716,42.5021479 145.009187,43.5888906 145.009187,44.9939275 C145.009187,46.3989645 145.401716,47.4802836 146.189147,48.2358512 C146.977255,48.9920966 147.884004,49.3707278 148.906003,49.3707278 C149.927664,49.3707278 150.832379,48.9870121 151.619809,48.2202585 M141.814041,51.5425184 C140.23884,49.8381696 139.45141,47.6558709 139.45141,44.9939275 C139.45141,42.3319841 140.23884,40.1446009 141.814041,38.429744 C143.389581,36.715565 145.310871,35.857628 147.580286,35.857628 C149.846988,35.857628 151.588624,36.6999723 152.80282,38.381949 L152.80282,30.2357853 L158.264668,30.2357853 L158.264668,53.8743035 L152.80282,53.8743035 L152.80282,51.2862559 C151.482187,53.1607684 149.71445,54.0980247 147.499611,54.0980247 C145.284771,54.0980247 143.389581,53.2465282 141.814041,51.5425184" id="Fill-22"></path>
            <path d="M173.396391,41.3037818 C172.756752,40.7827826 172.000167,40.5210966 171.126977,40.5210966 C170.253447,40.5210966 169.519913,40.7827826 168.922306,41.3037818 C168.327072,41.8264759 167.952508,42.5020462 167.804378,43.3325264 L174.480083,43.3325264 C174.397035,42.5020462 174.033318,41.8264759 173.396391,41.3037818 M171.064267,54.097923 C168.464694,54.097923 166.335614,53.2620192 164.674654,51.5905506 C163.013354,49.9190821 162.18423,47.6988186 162.18423,44.9300992 C162.18423,42.1617188 163.00827,39.957048 164.659061,38.3167648 C166.309852,36.6778374 168.444017,35.8578653 171.064267,35.8578653 C173.682144,35.8578653 175.855629,36.6673293 177.578961,38.2859184 C179.305342,39.9038294 180.168364,42.1512106 180.168364,45.0253502 C180.168364,45.6439732 180.124298,46.2185299 180.040911,46.7510542 L167.773192,46.7510542 C167.879968,47.539163 168.230804,48.1838868 168.826377,48.6828529 C169.423984,49.1845308 170.068707,49.4340138 170.760209,49.4340138 C171.451711,49.4340138 171.968982,49.3652026 172.309648,49.2262243 C172.650315,49.0882629 172.899798,48.9492845 173.060809,48.8113231 C173.219787,48.6723448 173.427576,48.443539 173.682144,48.1238889 L179.593807,48.1238889 C179.081282,49.9136585 178.059961,51.3563213 176.526115,52.4525552 C174.992269,53.5494671 173.17267,54.097923 171.064267,54.097923" id="Fill-23"></path>
            <path d="M189.213175,36.0500622 L189.213175,38.6692951 C190.341272,36.7947826 192.140533,35.8578653 194.609941,35.8578653 C196.655973,35.8578653 198.311849,36.539876 199.577907,37.9022026 C200.843966,39.2655461 201.478182,41.1180254 201.478182,43.4599797 L201.478182,53.8742018 L196.047519,53.8742018 L196.047519,44.194531 C196.047519,43.0457565 195.743461,42.1566342 195.138058,41.5271641 C194.531977,40.8997278 193.695057,40.5851622 192.628991,40.5851622 C191.565637,40.5851622 190.728717,40.8997278 190.123314,41.5271641 C189.51486,42.1566342 189.213175,43.0457565 189.213175,44.194531 L189.213175,53.8742018 L183.748954,53.8742018 L183.748954,36.0500622 L189.213175,36.0500622 Z" id="Fill-24"></path>
            <path d="M207.533535,51.6060077 C205.882744,49.9450473 205.058704,47.7298684 205.058704,44.9614879 C205.058704,42.1941244 205.882744,39.984708 207.533535,38.3339167 C209.184326,36.6831254 211.31883,35.8577297 213.93908,35.8577297 C216.112565,35.8577297 217.952842,36.3956775 219.465672,37.4708952 C220.976129,38.5471298 221.977112,40.0860605 222.46862,42.0863315 L216.559669,42.0863315 C216.047144,41.0216219 215.212935,40.4901146 214.050941,40.4901146 C212.891658,40.4901146 212.028297,40.8995922 211.464249,41.7199033 C210.9002,42.5398754 210.61682,43.6198387 210.61682,44.9614879 C210.61682,46.3027983 210.9002,47.3844564 211.464249,48.2044285 C212.028297,49.0247396 212.852337,49.4342172 213.93908,49.4342172 C214.620074,49.4342172 215.153276,49.317272 215.53767,49.0833817 C215.92003,48.8491523 216.260357,48.4332343 216.559669,47.8366444 L222.46862,47.8366444 C221.977112,49.7538673 220.96596,51.2758495 219.434486,52.4053026 C217.900979,53.5337388 216.06816,54.0981264 213.93908,54.0981264 C211.31883,54.0981264 209.184326,53.2669682 207.533535,51.6060077" id="Fill-25"></path>
            <polygon id="Fill-26" points="225.709934 53.8741001 231.174494 53.8741001 231.174494 36.0499605 225.709934 36.0499605"></polygon>
            <path d="M246.926399,48.2202585 C247.714169,47.4531659 248.106359,46.3677791 248.106359,44.9617252 C248.106359,43.5563493 247.714169,42.476386 246.926399,41.7198016 C246.138968,40.9632171 245.234253,40.5852639 244.209542,40.5852639 C243.188221,40.5852639 242.283506,40.9683017 241.495736,41.7353943 C240.707966,42.5021479 240.313064,43.5888906 240.313064,44.9939275 C240.313064,46.3989645 240.707966,47.4802836 241.495736,48.2358512 C242.283506,48.9920966 243.188221,49.3707278 244.209542,49.3707278 C245.234253,49.3707278 246.138968,48.9870121 246.926399,48.2202585 M237.117919,51.5425184 C235.542718,49.8381696 234.754948,47.6558709 234.754948,44.9939275 C234.754948,42.3319841 235.542718,40.1446009 237.117919,38.429744 C238.693458,36.715565 240.617122,35.857628 242.883824,35.857628 C245.153578,35.857628 246.892502,36.6999723 248.106359,38.381949 L248.106359,36.0501639 L253.571258,36.0501639 L253.571258,53.8743035 L248.106359,53.8743035 L248.106359,51.2862559 C246.786065,53.1607684 245.02104,54.0980247 242.8062,54.0980247 C240.59136,54.0980247 238.693458,53.2465282 237.117919,51.5425184" id="Fill-27"></path>
        </g>
    </g>
</svg>